# xmcd
#
# Track frame offsets:
#	150
#	19200
#	43096
#	61328
#	80543
#	106382
#	127245
#	148320
#	166620
#	201206
#
# Disc length: 4285 seconds
#
# Revision: 1
# Processed by: cddbd v1.5.2PL0 Copyright (c) Steve Scherf et al.
# Submitted via: audiograbber 1.83.01
#
DISCID=8f10bb0a
DTITLE=Тимур Шаов - О чем молчал Герасим...
DYEAR=2010
DGENRE=Шансон
TTITLE0=Пара слов о кризисе
TTITLE1=Случай в Кремле
TTITLE2=Рыбалка
TTITLE3=Мусорная куча
TTITLE4=Нужные слова
TTITLE5=Пора, мой друг, пора! (М.Плешкову)
TTITLE6=Кто виноват?
TTITLE7=Не ори на жену!
TTITLE8=Аутотренинг
TTITLE9=Играем Тургенева (мумузкл)
EXTD=Издатель: "Музпром-Продакшн", Москва, 2010\nИсполнитель: www.shaov.ru
EXTT0=
EXTT1=
EXTT2=
EXTT3=
EXTT4=
EXTT5=
EXTT6=
EXTT7=
EXTT8=
EXTT9=
PLAYORDER=
